<?xml version="1.0" encoding="UTF-8"?>
<svg xmlns="http://www.w3.org/2000/svg" version="1.1" viewBox="0 0 100 125">
  <defs>
    <style>
      .cls-1 {
        fill: #843636;
      }
    </style>
  </defs>
  <!-- Generator: Adobe Illustrator 28.7.1, SVG Export Plug-In . SVG Version: 1.2.0 Build 142)  -->
  <g>
    <g id="Layer_1">
      <path class="cls-1" d="M87.5,21.9l2-4.6s-6.8,1.1-15,1.3c-9.3.3-38.9.4-49,0-7.9-.3-13.5-1.3-13.5-1.3l2.2,4.7s4.2.9,10.4,1.2l-.4,9.2h-8.4l1.9,5.1h6.2l-2.2,46.2h5.5l2.2-46.2h42.8l2.2,46.3h5.5l-2.2-46.4h6.2l1.7-5.1h-8.1l-.5-9.2c6-.3,10.5-1.2,10.5-1.2ZM29.6,32.4l.4-9.1c11.1.2,31.6.2,41.4,0l.4,9.1H29.6Z"/>
    </g>
  </g>
</svg>