<?xml version="1.0" encoding="UTF-8"?>
<svg xmlns="http://www.w3.org/2000/svg" version="1.1" viewBox="0 0 100 125">
  <defs>
    <style>
      .cls-1 {
        fill: #843636;
        stroke: #843636;
        stroke-miterlimit: 10;
      }
    </style>
  </defs>
  <!-- Generator: Adobe Illustrator 28.7.1, SVG Export Plug-In . SVG Version: 1.2.0 Build 142)  -->
  <g>
    <g id="Layer_1">
      <g id="Layer_1-2" data-name="Layer_1">
        <g id="Layer_1-2">
          <g>
            <polygon class="cls-1" points="39.7 67.3 39.6 67.3 39.7 67.3 39.7 67.3"/>
            <path class="cls-1" d="M96.7,41.8c-2.2.5-4.5.9-6.8,1-4.9-.7-8.3-5.1-7.9-10v-6.8H18v6.8c.4,4.9-3.1,9.3-8,10-2.3,0-4.6-.5-6.8-1l-1.8-.5,1.1,1.6,2.4,3.6.2.5h14.9v13h-8v9h26.2l-4.6,5.1-1,.9h34.9l-1-.9-4.6-5.1h26.2v-9h-9v-13h15.9l.2-.5,2.4-3.5,1.1-1.6-1.9.5h-.1ZM39.7,67.3h0ZM60.3,60h-1.3v7h-18.7l-.3-6.4v-.6h-1v-8h21v8h.3ZM94.5,46H5.4l-2.3-3.4s.9.2,3.9.5l2.1.3h10.7c12,.5,30.1-16.4,30.1-16.4,0,0,18.2,16.9,30.1,16.9h12.7c2.7-.4,3.9-.7,3.9-.7l-2.3,2.9h.2Z"/>
          </g>
        </g>
      </g>
    </g>
  </g>
</svg>